<svg xmlns="http://www.w3.org/2000/svg" viewBox="0 0 32 32">
  <!-- Shield body -->
  <path d="M16 2 L28 6.5 L28 15.5 C28 22.5 22.5 27.5 16 30 C9.5 27.5 4 22.5 4 15.5 L4 6.5 Z" fill="#1e3a52"/>
  <!-- Orange accent band -->
  <path d="M16 2 L28 6.5 L28 9 L16 5 L4 9 L4 6.5 Z" fill="#f97316"/>
  <!-- White C letter mark -->
  <path d="M20 11.5 C18.5 10.2 14 10 12 13 C10.5 15.2 10.5 18 12 20 C14 23 18.5 22.8 20 21.5 L18.5 19.5 C17.5 20.5 14.5 20.5 13 18.5 C12 17 12 15 13 13.5 C14.5 11.5 17.5 11.5 18.5 12.5 Z" fill="white"/>
</svg>
